<svg id="Layer_1" data-name="Layer 1" xmlns="http://www.w3.org/2000/svg" viewBox="0 0 395.01 344.45"><defs><style>.cls-1,.cls-2{stroke:#000;stroke-miterlimit:10;}.cls-2{fill:#050000;}</style></defs><path class="cls-1" d="M972.08,623.26" transform="translate(-791.49 -303.05)"/><path class="cls-1" d="M921.69,623.26" transform="translate(-791.49 -303.05)"/><polygon class="cls-2" points="249.08 166.22 198.37 196.37 147.65 166.22 147.65 92.37 198.37 72.5 249.08 92.37 249.08 166.22"/><path class="cls-2" d="M934.12,604.7" transform="translate(-791.49 -303.05)"/><polygon class="cls-2" points="264.04 0.79 264.04 103.8 204.95 103.8 204.95 172.9 294.56 178.82 280.38 157.4 346.18 115.85 309.39 191.81 264.04 191.81 204.95 192.6 204.95 239.84 243.85 239.84 280.07 279.58 358.49 237.51 394.44 62.72 264.04 0.79"/><polyline class="cls-2" points="205.52 343.95 240.61 343.95 277.24 295.54 240.61 247.13 205.52 247.13"/><polygon class="cls-2" points="130.97 0.79 130.97 103.8 190.06 103.8 190.06 172.9 100.45 178.82 114.63 157.4 48.84 115.85 85.62 191.81 130.97 191.81 190.06 192.6 190.06 239.84 151.16 239.84 114.94 279.58 36.52 237.51 0.57 62.72 130.97 0.79"/><polyline class="cls-2" points="189.5 343.95 154.4 343.95 117.77 295.54 154.4 247.13 189.5 247.13"/></svg>